<svg width="512" height="512" viewBox="0 0 512 512" fill="none" xmlns="http://www.w3.org/2000/svg">
<rect width="512" height="512" fill="transparent"/>
<g clip-path="url(#clip0_0_1)">
<path d="M465.448 180.963H457.9C456.19 164.557 448.467 149.365 436.221 138.315C423.974 127.265 408.071 121.139 391.576 121.119H268V97.032C279.656 94.1045 289.839 87.0171 296.633 77.1043C303.427 67.1915 306.363 55.137 304.888 43.2103C303.413 31.2836 297.629 20.3074 288.625 12.3483C279.621 4.3891 268.018 -0.00401306 256 -0.00401306C243.982 -0.00401306 232.379 4.3891 223.375 12.3483C214.371 20.3074 208.587 31.2836 207.112 43.2103C205.637 55.137 208.573 67.1915 215.367 77.1043C222.161 87.0171 232.344 94.1045 244 97.032V121.12H120.425C103.93 121.14 88.0266 127.265 75.7799 138.315C63.5332 149.365 55.8103 164.557 54.1 180.963H46.552C34.959 180.976 23.8447 185.587 15.6473 193.785C7.44992 201.983 2.83896 213.097 2.82599 224.69V326.733C2.83896 338.326 7.44992 349.44 15.6473 357.638C23.8447 365.836 34.959 370.447 46.552 370.46H54.1C55.8101 386.866 63.5326 402.058 75.7791 413.109C88.0256 424.159 103.929 430.284 120.424 430.305H201.904L245.608 506C246.661 507.824 248.176 509.339 250 510.393C251.825 511.446 253.894 512 256 512C258.107 512 260.176 511.446 262.001 510.393C263.825 509.339 265.34 507.824 266.393 506L310.093 430.305H391.573C408.068 430.285 423.973 424.16 436.22 413.11C448.467 402.059 456.19 386.867 457.9 370.46H465.449C477.042 370.447 488.156 365.836 496.354 357.638C504.551 349.44 509.162 338.326 509.175 326.733V224.69C509.162 213.097 504.551 201.982 496.353 193.785C488.156 185.587 477.041 180.976 465.448 180.963ZM230.742 49.258C230.742 44.2622 232.223 39.3786 234.999 35.2247C237.775 31.0709 241.719 27.8334 246.335 25.9216C250.951 24.0099 256.029 23.5097 260.929 24.4844C265.829 25.4591 270.33 27.8649 273.862 31.3975C277.395 34.9302 279.8 39.431 280.775 44.3308C281.749 49.2307 281.249 54.3094 279.337 58.9249C277.425 63.5404 274.187 67.4852 270.033 70.2606C265.879 73.0359 260.996 74.5172 256 74.517C249.303 74.5093 242.883 71.8456 238.148 67.1103C233.413 62.3749 230.749 55.9547 230.742 49.258ZM26.826 326.733V224.69C26.8318 219.46 28.9119 214.446 32.61 210.748C36.308 207.049 41.322 204.969 46.552 204.963H53.752V346.463H46.552C41.3215 346.457 36.3071 344.376 32.6089 340.677C28.9108 336.978 26.831 331.964 26.826 326.733ZM434.247 363.633C434.234 374.947 429.734 385.793 421.735 393.793C413.735 401.793 402.889 406.293 391.575 406.306H303.167C301.061 406.306 298.991 406.861 297.167 407.914C295.343 408.967 293.828 410.482 292.775 412.306L256 476L219.225 412.305C218.172 410.481 216.657 408.966 214.833 407.913C213.009 406.86 210.939 406.305 208.833 406.305H120.425C109.111 406.292 98.2651 401.792 90.2653 393.792C82.2655 385.792 77.7657 374.946 77.753 363.632V187.792C77.7657 176.478 82.2655 165.632 90.2653 157.632C98.2651 149.632 109.111 145.132 120.425 145.119H391.575C402.889 145.132 413.735 149.632 421.735 157.632C429.734 165.632 434.234 176.478 434.247 187.792V363.633ZM485.174 326.733C485.168 331.963 483.088 336.977 479.39 340.675C475.692 344.374 470.678 346.454 465.448 346.46H458.248V204.96H465.448C470.678 204.966 475.692 207.046 479.39 210.745C483.088 214.443 485.168 219.457 485.174 224.687V326.733ZM160.038 206.577C151.922 206.577 143.987 208.984 137.239 213.493C130.49 218.002 125.231 224.411 122.125 231.91C119.019 239.409 118.206 247.66 119.79 255.62C121.373 263.581 125.282 270.893 131.021 276.632C136.76 282.371 144.072 286.279 152.033 287.863C159.993 289.446 168.244 288.633 175.743 285.527C183.241 282.421 189.65 277.161 194.159 270.412C198.669 263.664 201.075 255.729 201.075 247.613C201.063 236.733 196.735 226.303 189.042 218.61C181.348 210.916 170.918 206.589 160.038 206.577ZM160.038 264.65C156.668 264.65 153.374 263.651 150.573 261.779C147.771 259.907 145.587 257.246 144.298 254.133C143.008 251.02 142.671 247.594 143.328 244.289C143.986 240.984 145.608 237.949 147.991 235.566C150.374 233.183 153.409 231.561 156.714 230.903C160.019 230.246 163.445 230.583 166.558 231.873C169.671 233.162 172.332 235.346 174.204 238.148C176.076 240.949 177.075 244.243 177.075 247.613C177.07 252.13 175.273 256.46 172.079 259.654C168.885 262.848 164.555 264.645 160.038 264.65ZM351.963 206.577C343.847 206.577 335.912 208.984 329.164 213.493C322.415 218.002 317.156 224.411 314.05 231.91C310.944 239.409 310.131 247.66 311.715 255.62C313.298 263.581 317.207 270.893 322.946 276.632C328.685 282.371 335.997 286.279 343.958 287.863C351.918 289.446 360.169 288.633 367.668 285.527C375.166 282.421 381.575 277.161 386.085 270.412C390.594 263.664 393 255.729 393 247.613C392.988 236.733 388.66 226.303 380.967 218.61C373.273 210.916 362.843 206.589 351.963 206.577ZM351.963 264.65C348.593 264.65 345.299 263.651 342.498 261.779C339.696 259.907 337.512 257.246 336.223 254.133C334.933 251.02 334.596 247.594 335.253 244.289C335.911 240.984 337.533 237.949 339.916 235.566C342.299 233.183 345.334 231.561 348.639 230.903C351.944 230.246 355.37 230.583 358.483 231.873C361.596 233.162 364.257 235.346 366.129 238.148C368.001 240.949 369 244.243 369 247.613C368.995 252.13 367.199 256.461 364.005 259.655C360.811 262.849 356.48 264.645 351.963 264.65ZM320.326 328.93C314.191 340.687 304.951 350.537 293.61 357.411C282.269 364.285 269.261 367.92 256 367.92C242.739 367.92 229.731 364.285 218.39 357.411C207.049 350.537 197.809 340.687 191.674 328.93C190.923 327.531 190.457 325.997 190.304 324.417C190.15 322.837 190.311 321.241 190.779 319.724C191.246 318.207 192.01 316.797 193.025 315.577C194.041 314.357 195.289 313.35 196.697 312.616C198.105 311.882 199.644 311.434 201.226 311.299C202.808 311.164 204.401 311.344 205.913 311.829C207.425 312.314 208.825 313.094 210.033 314.124C211.241 315.154 212.233 316.414 212.951 317.83C217.056 325.699 223.24 332.292 230.83 336.893C238.42 341.494 247.126 343.926 256.001 343.926C264.876 343.926 273.582 341.494 281.172 336.893C288.762 332.292 294.946 325.699 299.051 317.83C299.769 316.414 300.76 315.154 301.969 314.124C303.177 313.094 304.577 312.314 306.089 311.829C307.601 311.344 309.194 311.164 310.776 311.299C312.358 311.434 313.897 311.882 315.305 312.616C316.713 313.35 317.961 314.357 318.977 315.577C319.992 316.797 320.756 318.207 321.223 319.724C321.691 321.241 321.852 322.837 321.698 324.417C321.545 325.997 321.079 327.531 320.328 328.93H320.326Z" fill="black"/>
</g>
<defs>
<clipPath id="clip0_0_1">
<rect width="512" height="512" fill="white"/>
</clipPath>
</defs>
</svg>
