<svg width="508" height="254" viewBox="0 0 508 254" fill="none" xmlns="http://www.w3.org/2000/svg">
<path d="M124.54 141.512V150.129C124.54 155.939 127.79 161.24 132.97 163.879L175.709 185.719C182.267 189.064 187.772 194.156 191.617 200.433C195.463 206.71 197.498 213.928 197.499 221.289V238.509C197.499 244.03 193.018 248.499 187.499 248.499H15.4999C9.97996 248.499 5.49997 244.03 5.49997 238.509V221.289C5.49997 206.289 13.9099 192.549 27.2799 185.719L70.0298 163.879C72.5662 162.588 74.696 160.62 76.1837 158.193C77.6714 155.766 78.4592 152.976 78.4598 150.129V141.512" stroke="black" stroke-width="10" stroke-miterlimit="10" stroke-linecap="round" stroke-linejoin="round"/>
<path d="M132.59 164.369C130.658 166.773 121.113 177.258 101.5 177.258C82.1328 177.258 72.5828 167.035 70.4868 164.464" stroke="black" stroke-width="10" stroke-miterlimit="10" stroke-linecap="round" stroke-linejoin="round"/>
<path d="M61.6398 19.7827C72.3118 10.6187 86.2497 5.49973 101.5 5.49973C135.073 5.49973 162.288 30.3087 162.288 68.4595C162.288 106.609 144.323 143.653 101.5 143.653C58.6778 143.653 40.7119 106.609 40.7119 68.4595C40.7119 61.5636 41.6019 55.1046 43.2568 49.1486" stroke="black" stroke-width="10" stroke-miterlimit="10" stroke-linecap="round" stroke-linejoin="round"/>
<path d="M435.153 248.499H320.499C314.979 248.499 310.499 244.029 310.499 238.509V221.289C310.499 206.289 318.909 192.549 332.279 185.719L375.029 163.879C377.565 162.587 379.695 160.619 381.182 158.193C382.67 155.766 383.458 152.976 383.459 150.129V141.307" stroke="black" stroke-width="10" stroke-miterlimit="10" stroke-linecap="round" stroke-linejoin="round"/>
<path d="M429.539 141.307V150.129C429.539 155.939 432.789 161.24 437.969 163.879L480.709 185.719C487.266 189.064 492.771 194.156 496.617 200.433C500.462 206.71 502.497 213.928 502.499 221.289V238.509C502.499 244.03 498.018 248.499 492.499 248.499H470.229" stroke="black" stroke-width="10" stroke-miterlimit="10" stroke-linecap="round" stroke-linejoin="round"/>
<path d="M437.589 164.369C435.657 166.773 426.112 177.258 406.499 177.258C387.132 177.258 377.582 167.035 375.486 164.464" stroke="black" stroke-width="10" stroke-miterlimit="10" stroke-linecap="round" stroke-linejoin="round"/>
<path d="M467.287 68.4595C467.287 106.609 449.321 143.653 406.499 143.653C363.677 143.653 345.711 106.609 345.711 68.4595C345.711 30.3097 372.927 5.49974 406.499 5.49974C440.071 5.49974 467.287 30.3097 467.287 68.4595Z" stroke="black" stroke-width="10" stroke-miterlimit="10" stroke-linecap="round" stroke-linejoin="round"/>
<path d="M90.2257 47.4927H102.4V104.448" stroke="black" stroke-width="10" stroke-miterlimit="10" stroke-linecap="round" stroke-linejoin="round"/>
<path d="M422.412 99.1134C422.412 99.1134 394.7 99.4624 393.388 99.0244C392.075 98.5874 395.492 96.2754 413.661 70.3164C417.054 65.4675 418.922 61.3785 419.717 57.9515L419.998 55.7485C419.998 47.6995 413.473 41.1745 405.424 41.1745C398.342 41.1745 392.438 46.2265 391.123 52.9235" stroke="black" stroke-width="10" stroke-miterlimit="10" stroke-linecap="round" stroke-linejoin="round"/>
<path d="M198.375 90.6826L221.567 158.17L245.251 90.6026" stroke="black" stroke-width="10" stroke-miterlimit="10" stroke-linecap="round" stroke-linejoin="round"/>
<path d="M307.437 97.4025C307.437 97.4025 295.568 87.4245 281.572 91.6415C268.72 95.5125 266.922 110.332 276.22 116.393C276.22 116.393 285.343 120.464 295.463 124.196C319.823 133.181 309.33 156.748 289.719 156.748C279.899 156.748 271.658 152.448 266.669 146.943" stroke="black" stroke-width="10" stroke-miterlimit="10" stroke-linecap="round" stroke-linejoin="round"/>
</svg>
