<svg width="498" height="225" viewBox="0 0 498 225" fill="none" xmlns="http://www.w3.org/2000/svg">
<path d="M78.1755 110.18C90.7567 110.18 101.649 104.973 110.553 94.7008C119.453 84.4307 123.967 71.8639 123.967 57.346C123.967 42.8325 119.454 30.2646 110.551 19.9905C101.648 9.7214 90.7553 4.51514 78.1755 4.51514C65.5928 4.51514 54.7007 9.7214 45.7998 19.9921C36.8984 30.2627 32.3843 42.8314 32.3843 57.346C32.3843 71.8639 36.898 84.4322 45.8001 94.7031C54.7043 104.972 65.5971 110.18 78.1751 110.18H78.1755ZM53.6786 29.0814C60.5088 21.2003 68.5214 17.3698 78.1755 17.3698C87.8285 17.3698 95.8421 21.2003 102.674 29.0814C109.504 36.9635 112.826 46.2098 112.826 57.3456C112.826 68.4848 109.504 77.7299 102.674 85.6121C95.8421 93.495 87.8285 97.3256 78.1755 97.3256C68.5239 97.3256 60.512 93.4931 53.6786 85.6121C46.8466 77.7318 43.5253 68.4851 43.5253 57.346C43.5253 46.2098 46.8466 36.9635 53.6786 29.0814ZM158.298 173.189C158.041 168.915 157.521 164.252 156.757 159.329C155.985 154.368 154.992 149.679 153.802 145.393C152.573 140.963 150.903 136.589 148.836 132.396C146.694 128.045 144.176 124.256 141.35 121.138C138.396 117.877 134.778 115.254 130.595 113.341C126.426 111.439 121.807 110.475 116.865 110.475C114.924 110.475 113.048 111.393 109.423 114.116C106.846 116.052 104.262 117.975 101.67 119.883C99.1796 121.714 95.8059 123.43 91.6386 124.983C87.5731 126.501 83.4449 127.27 79.369 127.27C75.2963 127.27 71.1681 126.501 67.0994 124.983C62.9371 123.431 59.5616 121.716 57.0756 119.885C54.1904 117.758 51.5799 115.817 49.3158 114.114C45.694 111.392 43.8169 110.473 41.8763 110.473C36.9329 110.473 32.3148 111.438 28.1475 113.343C23.9672 115.253 20.3484 117.875 17.3908 121.14C14.5654 124.26 12.0475 128.047 9.90652 132.396C7.84272 136.588 6.17178 140.961 4.94161 145.395C3.75339 149.681 2.76011 154.368 1.98851 159.329C1.22248 164.246 0.704866 168.91 0.447912 173.194C0.195416 177.383 0.0680542 181.743 0.0680542 186.147C0.0680542 197.598 3.22278 206.868 9.44385 213.704C15.588 220.451 23.7166 223.871 33.6041 223.871H125.146C135.03 223.871 143.159 220.45 149.305 213.705C155.527 206.873 158.682 197.6 158.682 186.146C158.681 181.726 158.551 177.366 158.298 173.189ZM141.623 204.391C137.563 208.849 132.173 211.017 125.144 211.017H33.6044C26.5743 211.017 21.1842 208.849 17.1257 204.393C13.1444 200.02 11.2095 194.05 11.2095 186.147C11.2095 182.037 11.3268 177.979 11.5622 174.083C11.791 170.26 12.2596 166.061 12.9547 161.6C13.6405 157.193 14.5135 153.058 15.552 149.315C16.5486 145.724 17.9077 142.17 19.5931 138.746C21.2016 135.482 23.0523 132.682 25.0945 130.427C27.005 128.316 29.413 126.589 32.2499 125.294C34.8736 124.095 37.8227 123.439 41.0238 123.341C41.4137 123.58 42.1087 124.037 43.2341 124.884C45.5243 126.606 48.1642 128.571 51.0828 130.721C54.3726 133.141 58.6105 135.327 63.6741 137.213C68.8506 139.144 74.1304 140.125 79.3708 140.125C84.6119 140.125 89.8928 139.144 95.0664 137.214C100.134 135.325 104.371 133.141 107.665 130.718C110.652 128.516 113.218 126.608 115.507 124.884C116.634 124.039 117.328 123.58 117.718 123.341C120.921 123.439 123.87 124.095 126.495 125.294C129.331 126.589 131.739 128.318 133.649 130.426C135.691 132.681 137.542 135.481 139.15 138.748C140.837 142.17 142.198 145.726 143.193 149.313C144.233 153.062 145.107 157.195 145.792 161.598C146.485 166.068 146.955 170.269 147.185 174.085V174.088C147.421 177.969 147.54 182.025 147.541 186.147C147.54 194.052 145.605 200.02 141.624 204.391H141.623Z" fill="black"/>
<path d="M223.634 74.9996L203.971 151.79H195.663L176 74.9996H184.862L199.54 136.192H200.094L214.772 74.9996H223.634ZM272.082 92.1974L264.743 95.1967C264.282 93.4305 263.601 91.7142 262.701 90.0479C261.824 88.3476 260.624 86.9481 259.101 85.8481C257.577 84.7481 255.627 84.1984 253.25 84.1984C249.996 84.1984 247.284 85.2818 245.115 87.4479C242.969 89.5808 241.895 92.2972 241.895 95.5966C241.895 98.53 242.634 100.847 244.111 102.546C245.588 104.246 247.896 105.663 251.035 106.795L258.927 109.595C263.681 111.262 267.224 113.811 269.555 117.244C271.886 120.644 273.051 125.027 273.051 130.392C273.051 134.792 272.175 138.725 270.421 142.191C268.69 145.657 266.267 148.391 263.151 150.39C260.035 152.39 256.412 153.39 252.281 153.39C246.857 153.39 242.368 151.69 238.814 148.29C235.26 144.891 233.01 139.924 232.064 133.392L239.818 130.593C240.557 134.725 241.953 137.825 244.007 139.891C246.084 141.957 248.796 142.991 252.142 142.991C255.95 142.991 258.973 141.824 261.212 139.491C263.474 137.125 264.605 134.292 264.605 130.992C264.605 128.326 263.958 126.093 262.666 124.293C261.374 122.46 259.389 121.094 256.712 120.194L247.85 117.194C242.98 115.528 239.403 112.945 237.118 109.445C234.856 105.912 233.725 101.496 233.725 96.1969C233.725 91.864 234.568 88.0315 236.252 84.6982C237.961 81.3655 240.28 78.7488 243.211 76.8496C246.165 74.9496 249.511 74 253.25 74C258.512 74 262.643 75.6664 265.644 78.9991C268.666 82.3318 270.813 86.7312 272.082 92.1974Z" fill="black"/>
<path d="M481.08 79.5257H478.162C477.5 72.3162 474.512 65.6399 469.773 60.784C465.034 55.9281 458.88 53.2363 452.499 53.2273H404.686V42.6425C409.195 41.3558 413.137 38.2415 415.762 33.8853C418.392 29.5291 419.529 24.2318 418.959 18.9905C418.388 13.7493 416.15 8.92586 412.665 5.4282C409.18 1.93054 404.693 0 400.042 0C395.394 0 390.904 1.93054 387.419 5.4282C383.937 8.92586 381.699 13.7493 381.129 18.9905C380.559 24.2318 381.692 29.5291 384.321 33.8853C386.951 38.2415 390.889 41.3558 395.401 42.6425V53.228H347.587C341.205 53.2367 335.052 55.9284 330.313 60.7844C325.575 65.6403 322.587 72.3162 321.925 79.5257H319.005C314.519 79.5317 310.219 81.5581 307.047 85.1604C303.876 88.7631 302.092 93.6472 302.086 98.7415V143.584C302.092 148.679 303.876 153.563 307.047 157.165C310.219 160.768 314.519 162.794 319.005 162.8H321.925C322.587 170.01 325.575 176.686 330.313 181.542C335.051 186.398 341.205 189.09 347.587 189.099H379.112L396.023 222.363C396.429 223.165 397.014 223.831 397.72 224.294C398.426 224.756 399.226 225 400.042 225C400.857 225 401.658 224.756 402.364 224.294C403.07 223.831 403.655 223.165 404.064 222.363L420.973 189.099H452.499C458.88 189.09 465.034 186.399 469.773 181.543C474.512 176.687 477.5 170.01 478.162 162.8H481.08C485.567 162.794 489.867 160.768 493.038 157.165C496.212 153.563 497.993 148.679 498 143.584V98.7415C497.993 93.6472 496.212 88.7627 493.038 85.1604C489.867 81.5581 485.567 79.5317 481.08 79.5257ZM390.271 21.6482C390.271 19.4528 390.845 17.3067 391.917 15.4813C392.992 13.6559 394.516 12.2331 396.305 11.393C398.089 10.5529 400.053 10.3331 401.951 10.7614C403.845 11.1897 405.586 12.247 406.953 13.7994C408.321 15.3518 409.25 17.3297 409.63 19.4829C410.007 21.6361 409.813 23.8681 409.071 25.8963C408.332 27.9245 407.081 29.6583 405.472 30.8776C403.867 32.0973 401.976 32.7484 400.042 32.748C397.453 32.745 394.966 31.5743 393.134 29.4933C391.302 27.4124 390.275 24.5911 390.271 21.6482ZM311.372 143.584V98.7415C311.375 96.4433 312.18 94.2399 313.61 92.6147C315.041 90.9894 316.981 90.0754 319.005 90.0728H321.79V152.255H319.005C316.981 152.252 315.041 151.338 313.61 149.712C312.179 148.087 311.374 145.883 311.372 143.584ZM469.009 159.8C469.005 164.772 467.265 169.538 464.167 173.054C461.074 176.57 456.876 178.547 452.499 178.553H418.293C417.477 178.553 416.677 178.796 415.971 179.259C415.265 179.722 414.68 180.388 414.27 181.189L400.042 209.18L385.813 181.189C385.407 180.387 384.819 179.721 384.113 179.259C383.407 178.796 382.61 178.552 381.795 178.552H347.587C343.21 178.547 339.013 176.569 335.918 173.054C332.823 169.538 331.082 164.772 331.077 159.8V82.527C331.082 77.5551 332.823 72.7888 335.918 69.2731C339.013 65.7574 343.21 63.78 347.587 63.7744H452.499C456.876 63.78 461.074 65.7574 464.167 69.2731C467.265 72.7888 469.005 77.5551 469.009 82.527V159.8ZM488.712 143.584C488.712 145.883 487.907 148.086 486.474 149.711C485.044 151.336 483.106 152.251 481.08 152.253H478.294V90.0713H481.08C483.106 90.0739 485.044 90.9882 486.474 92.6135C487.907 94.2384 488.712 96.4422 488.712 98.7404V143.584ZM362.914 90.7819C359.773 90.7819 356.704 91.8397 354.093 93.8212C351.482 95.8027 349.447 98.6191 348.245 101.915C347.043 105.21 346.728 108.836 347.341 112.334C347.954 115.832 349.466 119.046 351.687 121.568C353.908 124.089 356.736 125.807 359.817 126.503C362.897 127.198 366.089 126.841 368.99 125.476C371.892 124.111 374.371 121.8 376.116 118.834C377.861 115.868 378.792 112.382 378.792 108.815C378.787 104.034 377.112 99.4502 374.136 96.0697C371.159 92.6888 367.124 90.7871 362.914 90.7819ZM362.914 116.302C361.61 116.302 360.336 115.863 359.252 115.04C358.168 114.218 357.323 113.048 356.824 111.68C356.325 110.312 356.194 108.807 356.449 107.355C356.703 105.902 357.331 104.568 358.253 103.521C359.175 102.474 360.349 101.761 361.628 101.472C362.907 101.183 364.232 101.332 365.437 101.898C366.641 102.465 367.671 103.425 368.395 104.656C369.119 105.887 369.506 107.335 369.506 108.815C369.504 110.8 368.809 112.703 367.573 114.107C366.337 115.51 364.661 116.3 362.914 116.302ZM437.173 90.7819C434.032 90.7819 430.964 91.8397 428.349 93.8212C425.738 95.8027 423.705 98.6191 422.502 101.915C421.302 105.21 420.988 108.836 421.599 112.334C422.213 115.832 423.723 119.046 425.947 121.568C428.166 124.089 430.993 125.807 434.076 126.503C437.155 127.198 440.347 126.841 443.247 125.476C446.15 124.111 448.63 121.8 450.374 118.834C452.118 115.868 453.051 112.382 453.051 108.815C453.043 104.034 451.372 99.4502 448.396 96.0697C445.419 92.6888 441.382 90.7871 437.173 90.7819ZM437.173 116.302C435.867 116.302 434.595 115.863 433.509 115.04C432.426 114.218 431.582 113.048 431.081 111.68C430.583 110.312 430.452 108.807 430.708 107.355C430.96 105.902 431.589 104.568 432.511 103.521C433.432 102.474 434.606 101.761 435.886 101.472C437.166 101.183 438.489 101.332 439.696 101.898C440.899 102.465 441.93 103.425 442.654 104.656C443.379 105.887 443.762 107.335 443.762 108.815C443.762 110.8 443.068 112.703 441.832 114.107C440.596 115.51 438.921 116.3 437.173 116.302ZM424.93 144.55C422.557 149.716 418.984 154.045 414.596 157.066C410.208 160.087 405.172 161.684 400.042 161.684C394.911 161.684 389.88 160.087 385.492 157.066C381.103 154.045 377.528 149.716 375.154 144.55C374.864 143.935 374.684 143.261 374.624 142.566C374.565 141.872 374.627 141.171 374.808 140.504C374.989 139.837 375.284 139.218 375.677 138.682C376.07 138.146 376.553 137.703 377.098 137.381C377.642 137.058 378.238 136.861 378.85 136.802C379.462 136.742 380.08 136.821 380.665 137.035C381.25 137.248 381.791 137.591 382.259 138.043C382.723 138.496 383.107 139.05 383.385 139.672C384.976 143.13 387.368 146.027 390.304 148.049C393.24 150.071 396.608 151.14 400.042 151.14C403.476 151.14 406.847 150.071 409.784 148.049C412.72 146.027 415.112 143.13 416.699 139.672C416.977 139.05 417.36 138.496 417.829 138.043C418.297 137.591 418.838 137.248 419.423 137.035C420.008 136.821 420.626 136.742 421.237 136.802C421.847 136.861 422.443 137.058 422.988 137.381C423.533 137.703 424.016 138.146 424.411 138.682C424.802 139.218 425.098 139.837 425.277 140.504C425.46 141.171 425.522 141.872 425.464 142.566C425.402 143.261 425.223 143.935 424.934 144.55H424.93Z" fill="black"/>
</svg>
